<svg xmlns="http://www.w3.org/2000/svg" style="display: none">
  <defs>
    <symbol id="menu-dots" viewBox="0 -960 960 960" fill="currentColor">
      <path
        d="M480-160q-33 0-56.5-23.5T400-240q0-33 23.5-56.5T480-320q33 0 56.5 23.5T560-240q0 33-23.5 56.5T480-160Zm0-240q-33 0-56.5-23.5T400-480q0-33 23.5-56.5T480-560q33 0 56.5 23.5T560-480q0 33-23.5 56.5T480-400Zm0-240q-33 0-56.5-23.5T400-720q0-33 23.5-56.5T480-800q33 0 56.5 23.5T560-720q0 33-23.5 56.5T480-640Z"
      />
    </symbol>
    <symbol id="left-arrow" viewBox="0 -960 960 960" fill="currentColor">
      <path d="M560-240 320-480l240-240 56 56-184 184 184 184-56 56Z"/>
    </symbol>
    <symbol id="hamburger-menu" viewBox="0 -960 960 960" fill="currentColor">
      <path d="M120-240v-80h720v80H120Zm0-200v-80h720v80H120Zm0-200v-80h720v80H120Z"/>
    </symbol>
    <symbol id="filter-icon" viewBox="0 -960 960 960" fill="currentColor">
      <path d="M400-240v-80h160v80H400ZM240-440v-80h480v80H240ZM120-640v-80h720v80H120Z"/>
    </symbol>
  </defs>
</svg>
